<?xml version="1.0" standalone="no"?>
<!DOCTYPE svg PUBLIC "-//W3C//DTD SVG 20010904//EN"
 "http://www.w3.org/TR/2001/REC-SVG-20010904/DTD/svg10.dtd">
<svg version="1.0" xmlns="http://www.w3.org/2000/svg"
 width="164.000000pt" height="173.000000pt" viewBox="0 0 164.000000 173.000000"
 preserveAspectRatio="xMidYMid meet">

<g transform="translate(0.000000,173.000000) scale(0.100000,-0.100000)"
fill="#000000" stroke="none">
<path d="M1243 1483 c9 -2 25 -2 35 0 9 3 1 5 -18 5 -19 0 -27 -2 -17 -5z"/>
<path d="M847 1265 c-4 -37 -4 -72 -1 -76 3 -5 25 -9 50 -9 28 0 43 4 39 10
-3 6 -22 10 -41 10 l-34 0 0 49 c0 28 5 53 10 56 6 4 33 4 61 0 44 -6 49 -9
43 -27 -4 -14 -2 -18 5 -14 6 4 11 18 11 32 0 19 -5 24 -24 24 -13 0 -43 3
-68 6 l-45 6 -6 -67z"/>
<path d="M1062 1280 c0 -14 2 -19 5 -12 2 6 2 18 0 25 -3 6 -5 1 -5 -13z"/>
<path d="M1163 1293 c9 -2 25 -2 35 0 9 3 1 5 -18 5 -19 0 -27 -2 -17 -5z"/>
<path d="M1225 1290 c3 -5 15 -10 26 -10 15 0 19 -7 19 -32 0 -70 -7 -78 -66
-78 l-54 0 -2 43 -1 42 -4 -39 c-3 -21 -1 -42 4 -47 4 -4 35 -9 68 -10 l60 -3
8 64 c6 48 5 65 -5 72 -19 11 -60 10 -53 -2z"/>
<path d="M890 1250 c0 -25 4 -30 24 -30 17 0 25 7 28 25 6 30 2 35 -29 35 -19
0 -23 -5 -23 -30z"/>
<path d="M570 1258 c-19 -5 -37 -11 -38 -13 -2 -2 3 -27 11 -57 26 -87 57
-203 102 -376 23 -90 46 -166 49 -170 16 -16 132 0 188 25 l58 26 0 74 0 75
-72 -4 c-40 -2 -80 -6 -88 -8 -12 -4 -15 4 -15 34 0 22 -5 41 -12 43 -10 4
-13 -25 -13 -122 0 -81 -4 -124 -10 -120 -13 8 -13 220 -1 244 7 12 -4 68 -36
189 -51 189 -46 182 -123 160z m325 -464 c14 -15 25 -37 25 -49 0 -35 -44 -75
-81 -75 -70 0 -103 76 -54 125 33 34 78 33 110 -1z"/>
<path d="M800 775 c-11 -13 -10 -14 4 -9 9 3 16 1 16 -6 0 -7 6 -5 16 5 12 11
20 13 27 6 17 -17 31 -13 17 4 -16 19 -64 19 -80 0z"/>
<path d="M804 712 c24 -28 48 -28 72 0 11 12 13 18 4 13 -23 -14 -63 -15 -80
-2 -8 6 -6 2 4 -11z"/>
<path d="M1204 1252 c-6 -4 -14 -17 -18 -29 -7 -21 -4 -23 24 -23 28 0 31 3
28 27 -3 28 -16 37 -34 25z"/>
<path d="M972 1215 c0 -16 2 -22 5 -12 2 9 2 23 0 30 -3 6 -5 -1 -5 -18z"/>
<path d="M1100 1230 c0 -5 -18 -10 -40 -10 -22 0 -40 -4 -40 -10 0 -5 6 -10
14 -10 8 0 17 -6 19 -12 3 -8 6 -6 6 5 1 11 9 17 26 17 16 0 25 6 25 15 0 8
-2 15 -5 15 -3 0 -5 -4 -5 -10z"/>
<path d="M1011 1174 c0 -11 3 -14 6 -6 3 7 2 16 -1 19 -3 4 -6 -2 -5 -13z"/>
<path d="M836 1138 c-3 -13 -1 -27 4 -32 7 -7 10 -2 10 12 0 12 5 22 10 22 6
0 10 5 10 10 0 20 -28 10 -34 -12z"/>
<path d="M890 1135 c-10 -12 -10 -15 4 -15 9 0 16 7 16 15 0 8 -2 15 -4 15 -2
0 -9 -7 -16 -15z"/>
<path d="M1063 1133 c9 -2 23 -2 30 0 6 3 -1 5 -18 5 -16 0 -22 -2 -12 -5z"/>
<path d="M1147 1112 c3 -12 -4 -23 -21 -32 -23 -12 -24 -14 -9 -25 15 -11 15
-13 -2 -22 -12 -7 -14 -13 -6 -17 21 -13 13 -46 -11 -46 -17 0 -19 -3 -10 -12
7 -7 12 -20 12 -30 0 -14 8 -18 40 -18 38 0 40 2 40 30 0 17 5 30 10 30 6 0
10 17 10 38 0 21 6 47 14 57 12 16 10 21 -10 42 -28 28 -64 31 -57 5z m43 -42
c0 -11 -7 -20 -15 -20 -8 0 -15 9 -15 20 0 11 7 20 15 20 8 0 15 -9 15 -20z
m-11 -59 c-15 -5 -22 6 -14 19 6 9 10 9 16 -1 5 -8 4 -15 -2 -18z m-19 -32 c0
-5 -4 -9 -10 -9 -5 0 -10 7 -10 16 0 8 5 12 10 9 6 -3 10 -10 10 -16z"/>
<path d="M1220 1126 c0 -3 11 -17 25 -32 25 -27 33 -18 15 17 -9 16 -40 28
-40 15z"/>
<path d="M920 1092 c-23 -22 -23 -24 -3 -13 12 6 25 16 28 22 13 20 0 15 -25
-9z"/>
<path d="M840 1075 c-17 -20 7 -20 34 0 19 15 19 15 -1 15 -11 0 -26 -7 -33
-15z"/>
<path d="M1250 1025 c0 -8 5 -15 10 -15 6 0 10 7 10 15 0 8 -4 15 -10 15 -5 0
-10 -7 -10 -15z"/>
<path d="M827 1023 c-4 -3 -6 -29 -5 -57 1 -47 2 -48 5 -11 3 22 9 44 14 50 5
5 9 13 9 17 0 10 -14 11 -23 1z"/>
<path d="M913 1013 c9 -2 25 -2 35 0 9 3 1 5 -18 5 -19 0 -27 -2 -17 -5z"/>
<path d="M1078 1003 c7 -3 16 -2 19 1 4 3 -2 6 -13 5 -11 0 -14 -3 -6 -6z"/>
<path d="M1226 971 c-7 -27 -4 -37 13 -54 16 -17 21 -18 21 -6 0 8 -4 19 -9
25 -5 5 -11 23 -13 39 l-4 30 -8 -34z"/>
<path d="M874 960 c0 -25 16 -27 17 -2 1 11 4 8 8 -8 l7 -25 6 28 c4 23 2 27
-16 27 -15 0 -22 -6 -22 -20z"/>
<path d="M1042 910 c-11 -18 -10 -20 18 -20 28 0 29 2 18 20 -7 11 -15 20 -18
20 -3 0 -11 -9 -18 -20z"/>
<path d="M516 888 c4 -13 17 -61 28 -108 24 -95 31 -110 52 -110 13 0 13 4 1
28 -8 15 -25 69 -38 120 -15 58 -28 92 -37 92 -9 0 -11 -7 -6 -22z"/>
<path d="M474 879 c24 -85 36 -135 36 -150 0 -18 27 -45 36 -36 9 9 -52 201
-66 205 -9 3 -11 -2 -6 -19z"/>
<path d="M434 869 c3 -13 14 -54 23 -91 10 -41 22 -68 30 -68 17 0 17 1 -11
94 -12 44 -29 82 -36 84 -9 3 -11 -2 -6 -19z"/>
<path d="M1160 870 c0 -5 7 -10 15 -10 8 0 15 5 15 10 0 6 -7 10 -15 10 -8 0
-15 -4 -15 -10z"/>
<path d="M950 725 c0 -8 5 -15 10 -15 6 0 10 7 10 15 0 8 -4 15 -10 15 -5 0
-10 -7 -10 -15z"/>
</g>
</svg>
